# xmcd
#
# Track frame offsets:
#       150
#       15087
#       29660
#       43988
#       56519
#       69202
#       81044
#       92600
#       103982
#       118942
#       134369
#       151194
#       164051
#       173655
#       181915
#       196708
#       209392
#       220561
#       230357
#       239093
#
# Disc length: 3375 seconds
#
# Revision: 0
# Processed by: cddbd v1.4PL0 Copyright (c) Steve Scherf et al.
# Submitted via: WhereIsIt 3.26
#
DISCID=0e0d2d14
DTITLE=Various Country - That's Country CD-7
DYEAR=1900
DGENRE=
TTITLE0=olivia newton-john - take me home country roads
TTITLE1=hoyt axton - evangelina
TTITLE2=the osmond brothers - takin' country to the city
TTITLE3=dottie west - here comes my baby again
TTITLE4=patsy cline - just a closer walk with thee
TTITLE5=justin tubb - lodi
TTITLE6=mickey gilley - you can count me missing
TTITLE7=tina turner - soul deep
TTITLE8=don williams - all I'm missing is you
TTITLE9=terry gibbs - we're living a lie
TTITLE10=bobby bare - sylvia's mother
TTITLE11=willie nelson - a moment isn't very long
TTITLE12=bob wills - my window faces south
TTITLE13=gene watson - drinkin' my way back home
TTITLE14=frankie laine - jezabel
TTITLE15=kenny rogers - ruben james
TTITLE16=porter wagoner - enough to make a grown man
TTITLE17=willie nelson - I didn't sleep a wink
TTITLE18=george jones - love bug
TTITLE19=don williams - my woman's love
EXTD=
EXTT0=
EXTT1=
EXTT2=
EXTT3=
EXTT4=
EXTT5=
EXTT6=
EXTT7=
EXTT8=
EXTT9=
EXTT10=
EXTT11=
EXTT12=
EXTT13=
EXTT14=
EXTT15=
EXTT16=
EXTT17=
EXTT18=
EXTT19=
PLAYORDER=
